<?xml version="1.0" encoding="utf-8"?>
<!-- Generator: Adobe Illustrator 24.0.2, SVG Export Plug-In . SVG Version: 6.00 Build 0)  -->
<svg version="1.1" id="Layer_1" xmlns="http://www.w3.org/2000/svg" xmlns:xlink="http://www.w3.org/1999/xlink" x="0px" y="0px"
	 viewBox="0 0 1190.55 841.89" style="enable-background:new 0 0 1190.55 841.89;" xml:space="preserve">
<style type="text/css">
	.st0{fill:#FFFFFF;}
</style>
<g>
	<polygon class="st0" points="280.23,384.14 280.23,384.81 253.66,421.17 253.66,448.37 261,457.08 261,457.75 236.43,457.75 
		236.43,457.08 243.76,448.37 243.76,423.06 217.32,384.81 217.32,384.14 240.65,384.14 240.65,384.81 234.89,393.52 251.06,417.56 
		269.12,393.14 262,384.81 262,384.14 	"/>
	<polygon class="st0" points="553.35,384.14 553.35,401.75 554.01,401.75 564.46,388.94 580.14,388.94 580.14,448.14 572.69,457.08 
		572.69,457.75 597.49,457.75 597.49,457.08 590.04,448.14 590.04,388.94 605.83,388.94 616.28,401.75 616.95,401.75 616.95,384.14 
			"/>
	<path class="st0" d="M791.73,384.14h-14.79l-27.97,53.61l-28.29-53.61h-13.01v0.67c1.78,2.11,4.1,4.97,5.77,7.97v55.43l-7.77,8.87
		v0.67h20.35v-0.67l-7.78-8.89V400l27.46,51.3h1l27.8-52.37v48.88l-8.12,9.27v0.67h26.13v-0.67l-8.12-9.27v-54.29l7.34-8.71V384.14z
		"/>
	<path class="st0" d="M917.08,457.75v-0.67l-8.22-9.14l0-49.54l52.69,59.35h3.7v-63.83l7.98-9.11v-0.67h-21.01v0.67l8.24,9.16v48.43
		l-51.05-58.26h-13.79v0.67c2.11,1.67,5,4.34,8.45,8.23v54.9l-8,9.14v0.67H917.08z"/>
	<g>
		<path class="st0" d="M668.9,417.73l-9.7-4.01c-8.01-3.37-11.28-7.59-11.28-13.39c0-7.8,6.11-13.41,16.97-13.41
			c1.79,0,4.32,0.21,5.69,0.42l10.24,14.28h0.83v-15.02c0,0-6.82-3.69-16.66-3.69c-15.39,0-26.46,7.29-26.46,20.16
			c0,11.07,8.01,16.76,16.02,20.03l8.96,3.69c8.12,3.37,13.07,7.06,13.07,14.65c0,8.54-7.27,13.51-18.45,13.51
			c-2.74,0-7.8-0.84-7.8-0.84l-11.79-14.7h-0.76v14.49c0,0,8.56,5.06,20.66,5.06c17.82,0,28.04-8.45,28.04-21.53
			C686.5,426.48,678.7,421.84,668.9,417.73"/>
	</g>
	<g>
		<path class="st0" d="M431.09,438.36c0,0-9.94,13.61-11.79,14.67c-3.04,1.3-8.27,2.16-12.36,2.16c-16.12,0-29.13-14.34-29.13-34.8
			c0-18.12,10.56-33.69,28.35-33.69c3.65,0,8.53,0.57,11.36,1.55c1.84,0.61,12.02,13.4,12.02,13.4h1.45v-15.48c0,0,0,0-0.01,0v-0.02
			c-4.34-1.22-14.48-3.22-24.37-3.22c-24.9,0-39.8,18.57-39.8,38.47c0,22.35,17.01,37.58,39.8,37.58c11.79,0,22.48-3.34,25.93-5.12
			v-0.01v-10.88v-4.6H431.09z"/>
	</g>
	<path class="st0" d="M348.06,448.37l-26.71-64.22h-0.26h-0.96h-8.58v0.67l3.58,8.44l-21.43,56.02l-7.09,7.81v0.67h18.35v-0.67
		l-5.98-8.71l4.75-13.04h28.92l5.32,13.04l-5.98,8.71v0.67h24.02v-0.67L348.06,448.37z M305.45,430.53l1.66-4.52l1.16-2.95
		l9.23-24.13l10.12,24.13l3.05,7.47H305.45z"/>
	<path class="st0" d="M871.45,448.37l-26.71-64.22h-0.26h-0.96h-8.58v0.67l3.58,8.44l-21.43,56.02l-7.09,7.81v0.67h18.35v-0.67
		l-5.98-8.71l4.75-13.04h28.92l5.32,13.04l-5.98,8.71v0.67h24.02v-0.67L871.45,448.37z M828.84,430.53l1.66-4.52l1.16-2.95
		l9.23-24.13l10.12,24.13l3.05,7.47H828.84z"/>
	<polygon class="st0" points="531.29,384.81 531.29,384.14 506.72,384.14 506.72,384.81 514.06,393.52 514.06,418.39 514.06,418.55 
		472.58,418.55 472.58,418.39 472.58,393.52 479.92,384.81 479.92,384.14 455.35,384.14 455.35,384.81 462.69,393.52 462.69,448.37 
		455.35,457.08 455.35,457.75 479.92,457.75 479.92,457.08 472.58,448.37 472.58,423.34 514.06,423.34 514.06,448.37 506.72,457.08 
		506.72,457.75 531.29,457.75 531.29,457.08 523.95,448.37 523.95,393.52 	"/>
</g>
</svg>
